 <svg  version="1.0" xmlns="http://www.w3.org/2000/svg"  width="293.000000pt" height="240.000000pt" viewBox="0 0 293.000000 240.000000"  preserveAspectRatio="xMidYMid meet">  <g transform="translate(0.000000,240.000000) scale(0.100000,-0.100000)" fill="#ff8647" stroke="none"> <path d="M1448 2349 c-56 -29 -83 -93 -58 -138 5 -10 97 -89 205 -177 l196 -159 -598 -5 c-559 -5 -600 -6 -633 -24 -99 -52 -137 -139 -89 -200 39 -50 44 -51 383 -56 l320 -5 -510 -389 c-280 -214 -526 -405 -548 -425 -157 -146 -53 -355 146 -297 46 13 98 52 344 254 160 131 296 242 301 245 8 5 11 -17 11 -70 -1 -355 307 -709 708 -812 251 -65 507 -40 739 74 241 118 403 299 486 545 60 180 51 395 -26 573 -92 214 -140 262 -715 703 -256 197 -476 364 -490 371 -38 19 -128 16 -172 -8z m597 -774 c212 -44 391 -205 449 -404 22 -76 21 -204 -4 -282 -106 -343 -531 -511 -873 -345 -353 171 -433 592 -163 862 151 151 374 214 591 169z"/> <path d="M1807 1400 c-106 -27 -210 -108 -254 -199 -24 -48 -28 -68 -28 -141 1 -98 20 -149 85 -223 80 -91 236 -143 360 -119 133 24 229 92 282 199 28 58 33 77 33 143 0 65 -5 85 -33 142 -61 124 -179 198 -325 204 -45 2 -99 -1 -120 -6z"/> </g> </svg> 