<?xml version="1.0" encoding="utf-8"?>
<!-- Generator: Adobe Illustrator 26.5.0, SVG Export Plug-In . SVG Version: 6.00 Build 0)  -->
<svg version="1.1" id="Layer_1" xmlns="http://www.w3.org/2000/svg" xmlns:xlink="http://www.w3.org/1999/xlink" x="0px" y="0px"
	 viewBox="0 0 300 450" style="enable-background:new 0 0 300 450;" xml:space="preserve">
<style type="text/css">
	.st0{fill:#A84AFF;}
	.st1{fill:#3FC1FF;}
	.st2{fill:#FF8074;}
	.st3{fill:#FF6235;}
	.st4{fill:#00C983;}
</style>
<path class="st0" d="M64.8,150.6c-60.8,8.7-85.5,82.5-42.1,126c20,19.9,27.2,21.8,84.4,22.1l42.6,0.2v-74.8v-74.8l-39.2,0.1
	C88.9,149.7,68.4,150.1,64.8,150.6z"/>
<g transform="translate(0.000000,450.000000) scale(0.050000,-0.050000)">
	<ellipse class="st1" cx="4500" cy="4555" rx="1500" ry="-1486.6"/>
	<path class="st2" d="M4702.2,6036.7c1215.6,176.7,1706.4,1653.8,836.5,2520.8c-399.9,397.1-545,434.8-1690,439.3l-853,3.1l3.3-1495
		l3.3-1495l785,3.7C4219.3,6016.7,4630.3,6026.6,4702.2,6036.7z"/>
	<path class="st3" d="M1300,8977C84,8803-410,7327,458,6458c399-398,544-436,1689-443l853-5v1495v1495l-785-2
		C1783,8996,1372,8987,1300,8977z"/>
	<path class="st4" d="M1150,3036.4c-697-167-1218-905-1129-1603c156-1238,1616-1766,2506-907c406,393,473,647,473,1817v725l-865-2
		C1457,3065.4,1244,3058.4,1150,3036.4z"/>
</g>
</svg>
