<?xml version="1.0" encoding="utf-8"?>
<!-- Generator: Adobe Illustrator 26.5.0, SVG Export Plug-In . SVG Version: 6.00 Build 0)  -->
<svg version="1.1" id="Layer_1" xmlns="http://www.w3.org/2000/svg" xmlns:xlink="http://www.w3.org/1999/xlink" x="0px" y="0px"
	 viewBox="0 0 300 300" style="enable-background:new 0 0 300 300;" xml:space="preserve">
<g transform="translate(0.000000,300.000000) scale(0.100000,-0.100000)">
	<path d="M1340,2685c-170-21-272-60-356-137c-69-63-84-117-84-298v-150H752c-184,0-225-12-297-84c-85-86-124-194-145-404
		c-9-84-9-140,0-225c21-209,60-317,145-403c72-72,113-84,297-84h148v186c0,177,1,188,25,238c32,67,84,119,151,151l53,25h335
		c413,0,453,7,539,89c87,82,97,133,97,510c0,349-3,366-84,446c-83,83-173,117-366,140C1506,2702,1482,2702,1340,2685z"/>
</g>
<g transform="translate(0.000000,300.000000) scale(0.100000,-0.100000)">
	<path d="M1675.7,307.8c169.9,21.8,271.7,61.3,355.3,138.7c68.7,63.3,83.4,117.4,82.6,298.4l-0.7,150l148,0.7
		c184,0.9,224.9,13.1,296.6,85.4c84.6,86.4,123.1,194.6,143,404.7c8.6,84,8.3,140-1.1,225c-22,208.9-61.5,316.7-146.9,402.3
		c-72.3,71.7-113.4,83.5-297.4,82.6l-148-0.7l0.9-186c0.9-177-0.1-188-23.8-238.1c-31.7-67.2-83.4-119.4-150.3-151.7l-52.9-25.3
		l-335-1.6c-413-2-453-9.2-538.6-91.6c-86.6-82.4-96.4-133.5-94.5-510.5c1.7-349,4.8-366,86.2-445.6
		c83.4-82.6,173.6-116.2,366.7-138.2C1509.8,290,1533.8,290.1,1675.7,307.8z"/>
</g>
</svg>
